<svg width="116" height="146" viewBox="0 0 116 146" fill="none" xmlns="http://www.w3.org/2000/svg">
<g clip-path="url(#clip0_277_1627)">
<path d="M57.4072 113.822C65.9706 113.813 74.1807 110.413 80.2359 104.367C86.2912 98.3206 89.6969 90.1229 89.7058 81.5724V33.1974C89.7058 24.6442 86.3029 16.4412 80.2458 10.3932C74.1886 4.34515 65.9733 0.947388 57.4072 0.947388C48.841 0.947388 40.6257 4.34515 34.5686 10.3932C28.5114 16.4412 25.1085 24.6442 25.1085 33.1974V81.5724C25.1174 90.1229 28.5232 98.3206 34.5784 104.367C40.6337 110.413 48.8438 113.813 57.4072 113.822Z" fill="url(#paint0_linear_277_1627)"/>
<path d="M113.93 81.5035V65.3785C113.93 63.2402 113.079 61.1895 111.565 59.6775C110.051 58.1654 107.997 57.316 105.855 57.316C103.714 57.316 101.66 58.1654 100.146 59.6775C98.6313 61.1895 97.7806 63.2402 97.7806 65.3785V81.5035C97.7806 92.1951 93.527 102.449 85.9555 110.009C78.384 117.569 68.1149 121.816 57.4073 121.816C46.6996 121.816 36.4305 117.569 28.859 110.009C21.2876 102.449 17.034 92.1951 17.034 81.5035V65.3785C17.034 63.2402 16.1832 61.1895 14.669 59.6775C13.1547 58.1654 11.1008 57.316 8.9593 57.316C6.81777 57.316 4.76395 58.1654 3.24966 59.6775C1.73536 61.1895 0.884644 63.2402 0.884644 65.3785L0.884644 81.5035C0.907558 95.0082 5.77611 108.058 14.6076 118.286C23.4391 128.514 35.6488 135.244 49.0231 137.256L49.3326 137.296V146.004H25.1086C24.0482 146.004 22.9982 146.212 22.0186 146.617C21.0389 147.022 20.1488 147.616 19.399 148.365C18.6492 149.114 18.0544 150.002 17.6486 150.981C17.2428 151.959 17.034 153.007 17.034 154.066C17.034 155.125 17.2428 156.173 17.6486 157.151C18.0544 158.13 18.6492 159.018 19.399 159.767C20.1488 160.516 21.0389 161.11 22.0186 161.515C22.9982 161.92 24.0482 162.129 25.1086 162.129H89.7059C90.7663 162.129 91.8163 161.92 92.7959 161.515C93.7756 161.11 94.6657 160.516 95.4156 159.767C96.1654 159.018 96.7601 158.13 97.1659 157.151C97.5717 156.173 97.7806 155.125 97.7806 154.066C97.7806 153.007 97.5717 151.959 97.1659 150.981C96.7601 150.002 96.1654 149.114 95.4156 148.365C94.6657 147.616 93.7756 147.022 92.7959 146.617C91.8163 146.212 90.7663 146.004 89.7059 146.004H65.4819V137.296C93.0031 133.204 113.883 109.796 113.93 81.5102V81.5035Z" fill="url(#paint1_linear_277_1627)"/>
</g>
<defs>
<linearGradient id="paint0_linear_277_1627" x1="49.1" y1="141.768" x2="129.329" y2="67.8519" gradientUnits="userSpaceOnUse">
<stop stop-color="#20E391"/>
<stop offset="1" stop-color="#02D170"/>
</linearGradient>
<linearGradient id="paint1_linear_277_1627" x1="42.8697" y1="188.078" x2="107.524" y2="75.8169" gradientUnits="userSpaceOnUse">
<stop stop-color="#20E391"/>
<stop offset="1" stop-color="#02D170"/>
</linearGradient>
<clipPath id="clip0_277_1627">
<rect width="114.391" height="161.25" fill="white" transform="translate(0.884644 0.947327)"/>
</clipPath>
</defs>
</svg>
