<svg width="20" height="21" viewBox="0 0 20 21" fill="none" xmlns="http://www.w3.org/2000/svg">
<path d="M19.9997 16.5204L16.2497 12.7704V15.1704C13.8497 14.7954 11.7747 13.3704 10.5747 11.2454L10.3498 11.7954C10.0748 12.5204 9.69975 13.1954 9.27475 13.7954C10.9997 15.9704 13.4747 17.3704 16.2497 17.6954V20.2704L19.9997 16.5204Z" fill="#16BC6D"/>
<path d="M9.725 11.1704L10.075 10.2704C11.15 7.64538 13.5 5.79538 16.25 5.37038V7.77038L20 4.02038L16.25 0.270386V2.84538C13.175 3.22038 10.425 4.92038 8.75 7.47038C6.85 4.57038 3.6 2.77039 0 2.77039V5.27038C3.275 5.27038 6.175 7.22038 7.4 10.2704C6.175 13.3204 3.275 15.2704 0 15.2704V17.7704C0.2 17.7704 0.425 17.7704 0.625 17.7454C4.675 17.5204 8.2 14.9954 9.725 11.1704Z" fill="#16BC6D"/>
</svg>
