<svg width="361" height="76" viewBox="0 0 361 76" fill="none" xmlns="http://www.w3.org/2000/svg">
<line x1="358.5" y1="17.9275" x2="358.5" y2="27.0725" stroke="#BDBDBD" stroke-width="5" stroke-linecap="round"/>
<line x1="256.935" y1="17.9275" x2="256.935" y2="27.0725" stroke="#02B663" stroke-width="5" stroke-linecap="round"/>
<line x1="269.5" y1="13.4012" x2="269.5" y2="31.5989" stroke="#02B663" stroke-width="5" stroke-linecap="round"/>
<line x1="282.065" y1="10.5722" x2="282.065" y2="34.4279" stroke="#BDBDBD" stroke-width="5" stroke-linecap="round"/>
<line x1="294.629" y1="3.2168" x2="294.629" y2="41.7832" stroke="#BDBDBD" stroke-width="5" stroke-linecap="round"/>
<line x1="307.194" y1="7.1774" x2="307.194" y2="38.3885" stroke="#BDBDBD" stroke-width="5" stroke-linecap="round"/>
<line x1="2.5" y1="-2.5" x2="22.4171" y2="-2.5" transform="matrix(-0.0420217 0.999117 -0.999925 -0.0122802 241.871 10.3354)" stroke="#02B663" stroke-width="5" stroke-linecap="round"/>
<line x1="319.759" y1="13.4012" x2="319.759" y2="37.2568" stroke="#BDBDBD" stroke-width="5" stroke-linecap="round"/>
<line x1="193.065" y1="7.1774" x2="193.065" y2="38.3885" stroke="#02B663" stroke-width="5" stroke-linecap="round"/>
<line x1="333.371" y1="3.2168" x2="333.371" y2="41.7832" stroke="#BDBDBD" stroke-width="5" stroke-linecap="round"/>
<line x1="205.629" y1="4.34839" x2="205.629" y2="38.3884" stroke="#02B663" stroke-width="5" stroke-linecap="round"/>
<line x1="345.935" y1="10.5722" x2="345.935" y2="34.4279" stroke="#BDBDBD" stroke-width="5" stroke-linecap="round"/>
<line x1="218.194" y1="16.2301" x2="218.194" y2="29.3357" stroke="#02B663" stroke-width="5" stroke-linecap="round"/>
<line x1="2.5" y1="17.9275" x2="2.5" y2="27.0725" stroke="#02B663" stroke-width="5" stroke-linecap="round"/>
<line x1="140.712" y1="19.6249" x2="140.712" y2="25.9409" stroke="#02B663" stroke-width="5" stroke-linecap="round"/>
<line x1="15.0647" y1="13.4012" x2="15.0647" y2="31.5989" stroke="#02B663" stroke-width="5" stroke-linecap="round"/>
<line x1="27.6294" y1="10.5722" x2="27.6294" y2="34.4279" stroke="#02B663" stroke-width="5" stroke-linecap="round"/>
<line x1="155.371" y1="16.2301" x2="155.371" y2="28.7699" stroke="#02B663" stroke-width="5" stroke-linecap="round"/>
<line x1="40.1941" y1="3.2168" x2="40.1941" y2="41.7832" stroke="#02B663" stroke-width="5" stroke-linecap="round"/>
<line x1="167.935" y1="3.2168" x2="167.935" y2="41.7832" stroke="#02B663" stroke-width="5" stroke-linecap="round"/>
<line x1="52.7588" y1="7.1774" x2="52.7588" y2="38.3885" stroke="#02B663" stroke-width="5" stroke-linecap="round"/>
<line x1="180.5" y1="10.5722" x2="180.5" y2="34.4279" stroke="#02B663" stroke-width="5" stroke-linecap="round"/>
<line x1="65.3235" y1="13.4012" x2="65.3235" y2="37.2568" stroke="#02B663" stroke-width="5" stroke-linecap="round"/>
<line x1="78.9353" y1="3.2168" x2="78.9353" y2="41.7832" stroke="#02B663" stroke-width="5" stroke-linecap="round"/>
<line x1="91.5" y1="10.5722" x2="91.5" y2="34.4279" stroke="#02B663" stroke-width="5" stroke-linecap="round"/>
<line x1="104.065" y1="3.2168" x2="104.065" y2="41.7832" stroke="#02B663" stroke-width="5" stroke-linecap="round"/>
<line x1="116.629" y1="16.2301" x2="116.629" y2="28.7699" stroke="#02B663" stroke-width="5" stroke-linecap="round"/>
<line x1="128.147" y1="13.9669" x2="128.147" y2="31.0331" stroke="#02B663" stroke-width="5" stroke-linecap="round"/>
<line x1="230.759" y1="15.0985" x2="230.759" y2="32.1647" stroke="#02B663" stroke-width="5" stroke-linecap="round"/>
<path d="M9.0625 72.5978C8.36695 72.5978 7.7745 72.4085 7.28516 72.0299C6.79581 71.6483 6.42188 71.0959 6.16335 70.3726C5.90483 69.6463 5.77557 68.7692 5.77557 67.7412C5.77557 66.7195 5.90483 65.8469 6.16335 65.1237C6.42495 64.3974 6.80043 63.8434 7.28977 63.4618C7.7822 63.0771 8.37311 62.8847 9.0625 62.8847C9.75189 62.8847 10.3413 63.0771 10.8306 63.4618C11.323 63.8434 11.6985 64.3974 11.957 65.1237C12.2186 65.8469 12.3494 66.7195 12.3494 67.7412C12.3494 68.7692 12.2202 69.6463 11.9616 70.3726C11.7031 71.0959 11.3292 71.6483 10.8398 72.0299C10.3505 72.4085 9.75805 72.5978 9.0625 72.5978ZM9.0625 71.5821C9.75189 71.5821 10.2874 71.2498 10.669 70.585C11.0507 69.9202 11.2415 68.9723 11.2415 67.7412C11.2415 66.9226 11.1538 66.2255 10.9783 65.65C10.806 65.0744 10.5567 64.6359 10.2305 64.3343C9.90732 64.0327 9.51799 63.8819 9.0625 63.8819C8.37926 63.8819 7.84529 64.2189 7.46058 64.8929C7.07588 65.5638 6.88352 66.5132 6.88352 67.7412C6.88352 68.5599 6.9697 69.2554 7.14205 69.8279C7.31439 70.4003 7.56214 70.8358 7.8853 71.1343C8.21153 71.4329 8.60393 71.5821 9.0625 71.5821ZM15.1562 71.259C14.9284 71.259 14.733 71.1774 14.5699 71.0143C14.4068 70.8512 14.3252 70.6558 14.3252 70.428C14.3252 70.2003 14.4068 70.0048 14.5699 69.8417C14.733 69.6786 14.9284 69.5971 15.1562 69.5971C15.3839 69.5971 15.5794 69.6786 15.7425 69.8417C15.9056 70.0048 15.9872 70.2003 15.9872 70.428C15.9872 70.5788 15.9487 70.7173 15.8717 70.8435C15.7979 70.9697 15.6979 71.0713 15.5717 71.1482C15.4486 71.2221 15.3101 71.259 15.1562 71.259ZM15.1562 66.4763C14.9284 66.4763 14.733 66.3948 14.5699 66.2316C14.4068 66.0685 14.3252 65.8731 14.3252 65.6454C14.3252 65.4176 14.4068 65.2222 14.5699 65.0591C14.733 64.8959 14.9284 64.8144 15.1562 64.8144C15.3839 64.8144 15.5794 64.8959 15.7425 65.0591C15.9056 65.2222 15.9872 65.4176 15.9872 65.6454C15.9872 65.7962 15.9487 65.9347 15.8717 66.0608C15.7979 66.187 15.6979 66.2886 15.5717 66.3655C15.4486 66.4394 15.3101 66.4763 15.1562 66.4763ZM21.2476 72.5978C20.552 72.5978 19.9596 72.4085 19.4702 72.0299C18.9809 71.6483 18.607 71.0959 18.3484 70.3726C18.0899 69.6463 17.9606 68.7692 17.9606 67.7412C17.9606 66.7195 18.0899 65.8469 18.3484 65.1237C18.61 64.3974 18.9855 63.8434 19.4749 63.4618C19.9673 63.0771 20.5582 62.8847 21.2476 62.8847C21.937 62.8847 22.5263 63.0771 23.0157 63.4618C23.5081 63.8434 23.8836 64.3974 24.1421 65.1237C24.4037 65.8469 24.5345 66.7195 24.5345 67.7412C24.5345 68.7692 24.4052 69.6463 24.1467 70.3726C23.8882 71.0959 23.5143 71.6483 23.0249 72.0299C22.5356 72.4085 21.9431 72.5978 21.2476 72.5978ZM21.2476 71.5821C21.937 71.5821 22.4725 71.2498 22.8541 70.585C23.2357 69.9202 23.4266 68.9723 23.4266 67.7412C23.4266 66.9226 23.3388 66.2255 23.1634 65.65C22.9911 65.0744 22.7418 64.6359 22.4155 64.3343C22.0924 64.0327 21.7031 63.8819 21.2476 63.8819C20.5643 63.8819 20.0304 64.2189 19.6457 64.8929C19.261 65.5638 19.0686 66.5132 19.0686 67.7412C19.0686 68.5599 19.1548 69.2554 19.3271 69.8279C19.4995 70.4003 19.7472 70.8358 20.0704 71.1343C20.3966 71.4329 20.789 71.5821 21.2476 71.5821ZM29.6126 72.5978C28.917 72.5978 28.3246 72.4085 27.8352 72.0299C27.3459 71.6483 26.972 71.0959 26.7134 70.3726C26.4549 69.6463 26.3256 68.7692 26.3256 67.7412C26.3256 66.7195 26.4549 65.8469 26.7134 65.1237C26.975 64.3974 27.3505 63.8434 27.8399 63.4618C28.3323 63.0771 28.9232 62.8847 29.6126 62.8847C30.302 62.8847 30.8913 63.0771 31.3807 63.4618C31.8731 63.8434 32.2486 64.3974 32.5071 65.1237C32.7687 65.8469 32.8995 66.7195 32.8995 67.7412C32.8995 68.7692 32.7702 69.6463 32.5117 70.3726C32.2532 71.0959 31.8793 71.6483 31.3899 72.0299C30.9006 72.4085 30.3081 72.5978 29.6126 72.5978ZM29.6126 71.5821C30.302 71.5821 30.8375 71.2498 31.2191 70.585C31.6007 69.9202 31.7916 68.9723 31.7916 67.7412C31.7916 66.9226 31.7038 66.2255 31.5284 65.65C31.3561 65.0744 31.1068 64.6359 30.7805 64.3343C30.4574 64.0327 30.0681 63.8819 29.6126 63.8819C28.9293 63.8819 28.3954 64.2189 28.0107 64.8929C27.626 65.5638 27.4336 66.5132 27.4336 67.7412C27.4336 68.5599 27.5198 69.2554 27.6921 69.8279C27.8645 70.4003 28.1122 70.8358 28.4354 71.1343C28.7616 71.4329 29.154 71.5821 29.6126 71.5821Z" fill="black"/>
<path d="M319.56 67.2334V68.249H315.423V67.2334H319.56ZM324.74 72.5978C324.131 72.5978 323.588 72.4931 323.111 72.2838C322.637 72.0746 322.26 71.7837 321.98 71.4113C321.703 71.0359 321.552 70.6004 321.527 70.1049H322.691C322.715 70.4096 322.82 70.6727 323.005 70.8943C323.189 71.1128 323.431 71.2821 323.729 71.4021C324.028 71.5221 324.359 71.5821 324.722 71.5821C325.128 71.5821 325.488 71.5114 325.802 71.3698C326.116 71.2282 326.362 71.0312 326.541 70.7789C326.719 70.5265 326.809 70.2341 326.809 69.9017C326.809 69.554 326.722 69.2477 326.55 68.9831C326.378 68.7153 326.125 68.506 325.793 68.3552C325.461 68.2044 325.054 68.129 324.574 68.129H323.817V67.1134H324.574C324.95 67.1134 325.279 67.0457 325.562 66.9103C325.848 66.7749 326.072 66.584 326.232 66.3378C326.395 66.0916 326.476 65.8023 326.476 65.4699C326.476 65.1499 326.405 64.8713 326.264 64.6343C326.122 64.3974 325.922 64.2127 325.664 64.0804C325.408 63.948 325.107 63.8819 324.759 63.8819C324.433 63.8819 324.125 63.9419 323.836 64.0619C323.549 64.1789 323.315 64.3497 323.134 64.5743C322.952 64.7959 322.854 65.0637 322.838 65.3776H321.731C321.749 64.8821 321.898 64.4481 322.178 64.0757C322.458 63.7003 322.825 63.4079 323.277 63.1986C323.733 62.9893 324.233 62.8847 324.777 62.8847C325.362 62.8847 325.864 63.0032 326.282 63.2402C326.701 63.4741 327.023 63.7834 327.247 64.1681C327.472 64.5528 327.584 64.9683 327.584 65.4145C327.584 65.947 327.444 66.4009 327.164 66.7764C326.887 67.1519 326.51 67.4119 326.033 67.5566V67.6304C326.63 67.7289 327.096 67.9828 327.432 68.3922C327.767 68.7984 327.935 69.3016 327.935 69.9017C327.935 70.4157 327.795 70.8774 327.515 71.2867C327.238 71.6929 326.859 72.013 326.379 72.2469C325.899 72.4808 325.353 72.5978 324.74 72.5978ZM330.876 71.259C330.648 71.259 330.453 71.1774 330.289 71.0143C330.126 70.8512 330.045 70.6558 330.045 70.428C330.045 70.2003 330.126 70.0048 330.289 69.8417C330.453 69.6786 330.648 69.5971 330.876 69.5971C331.103 69.5971 331.299 69.6786 331.462 69.8417C331.625 70.0048 331.707 70.2003 331.707 70.428C331.707 70.5788 331.668 70.7173 331.591 70.8435C331.517 70.9697 331.417 71.0713 331.291 71.1482C331.168 71.2221 331.03 71.259 330.876 71.259ZM330.876 66.4763C330.648 66.4763 330.453 66.3948 330.289 66.2316C330.126 66.0685 330.045 65.8731 330.045 65.6454C330.045 65.4176 330.126 65.2222 330.289 65.0591C330.453 64.8959 330.648 64.8144 330.876 64.8144C331.103 64.8144 331.299 64.8959 331.462 65.0591C331.625 65.2222 331.707 65.4176 331.707 65.6454C331.707 65.7962 331.668 65.9347 331.591 66.0608C331.517 66.187 331.417 66.2886 331.291 66.3655C331.168 66.4394 331.03 66.4763 330.876 66.4763ZM336.967 72.5978C336.272 72.5978 335.679 72.4085 335.19 72.0299C334.7 71.6483 334.326 71.0959 334.068 70.3726C333.809 69.6463 333.68 68.7692 333.68 67.7412C333.68 66.7195 333.809 65.8469 334.068 65.1237C334.33 64.3974 334.705 63.8434 335.194 63.4618C335.687 63.0771 336.278 62.8847 336.967 62.8847C337.656 62.8847 338.246 63.0771 338.735 63.4618C339.228 63.8434 339.603 64.3974 339.862 65.1237C340.123 65.8469 340.254 66.7195 340.254 67.7412C340.254 68.7692 340.125 69.6463 339.866 70.3726C339.608 71.0959 339.234 71.6483 338.744 72.0299C338.255 72.4085 337.663 72.5978 336.967 72.5978ZM336.967 71.5821C337.656 71.5821 338.192 71.2498 338.574 70.585C338.955 69.9202 339.146 68.9723 339.146 67.7412C339.146 66.9226 339.058 66.2255 338.883 65.65C338.711 65.0744 338.461 64.6359 338.135 64.3343C337.812 64.0327 337.423 63.8819 336.967 63.8819C336.284 63.8819 335.75 64.2189 335.365 64.8929C334.98 65.5638 334.788 66.5132 334.788 67.7412C334.788 68.5599 334.874 69.2554 335.047 69.8279C335.219 70.4003 335.467 70.8358 335.79 71.1343C336.116 71.4329 336.508 71.5821 336.967 71.5821ZM345.387 72.5978C345 72.5916 344.612 72.5177 344.224 72.3762C343.836 72.2346 343.482 71.9961 343.162 71.6606C342.842 71.3221 342.585 70.865 342.391 70.2895C342.197 69.7109 342.101 68.9846 342.101 68.1106C342.101 67.2734 342.179 66.5317 342.336 65.8854C342.493 65.236 342.721 64.6897 343.019 64.2466C343.318 63.8003 343.678 63.4618 344.099 63.2309C344.524 63.0001 345.003 62.8847 345.535 62.8847C346.065 62.8847 346.535 62.9909 346.948 63.2032C347.363 63.4125 347.702 63.7049 347.963 64.0804C348.225 64.4558 348.394 64.8883 348.471 65.3776H347.345C347.24 64.9529 347.037 64.6005 346.735 64.3204C346.434 64.0404 346.034 63.9003 345.535 63.9003C344.803 63.9003 344.226 64.2189 343.804 64.8559C343.385 65.493 343.175 66.3871 343.172 67.5381H343.245C343.418 67.2765 343.622 67.0534 343.859 66.8687C344.099 66.681 344.364 66.5363 344.653 66.4348C344.943 66.3332 345.249 66.2824 345.572 66.2824C346.114 66.2824 346.609 66.4178 347.059 66.6887C347.508 66.9564 347.868 67.3273 348.139 67.8012C348.41 68.2721 348.545 68.8123 348.545 69.4216C348.545 70.0064 348.414 70.5419 348.153 71.0282C347.891 71.5114 347.523 71.8961 347.049 72.1823C346.579 72.4654 346.025 72.6039 345.387 72.5978ZM345.387 71.5821C345.775 71.5821 346.123 71.4852 346.431 71.2913C346.742 71.0974 346.986 70.8374 347.165 70.5111C347.346 70.1849 347.437 69.8217 347.437 69.4216C347.437 69.0308 347.349 68.6753 347.174 68.3552C347.002 68.0321 346.763 67.7751 346.458 67.5843C346.157 67.3935 345.812 67.2981 345.424 67.2981C345.132 67.2981 344.86 67.3565 344.607 67.4735C344.355 67.5874 344.133 67.7443 343.943 67.9444C343.755 68.1444 343.607 68.3737 343.499 68.6322C343.392 68.8877 343.338 69.157 343.338 69.4401C343.338 69.8156 343.425 70.1664 343.601 70.4927C343.779 70.8189 344.023 71.082 344.33 71.2821C344.641 71.4821 344.994 71.5821 345.387 71.5821Z" fill="black"/>
</svg>
