<svg width="24" height="23" viewBox="0 0 24 23" fill="none" xmlns="http://www.w3.org/2000/svg">
<path fill-rule="evenodd" clip-rule="evenodd" d="M22.1064 11.2711C22.1064 7.31452 19.9626 3.73152 16.5643 1.81358C16.1657 1.5886 16.026 1.08486 16.2522 0.688458C16.4785 0.292054 16.985 0.153092 17.3837 0.378077C21.2963 2.58635 23.7663 6.71441 23.7663 11.2711C23.7663 15.8267 21.2975 19.9539 17.3863 22.1626C16.9878 22.3877 16.4811 22.2488 16.2548 21.8525C16.0285 21.4561 16.1681 20.9524 16.5667 20.7273C19.9636 18.809 22.1064 15.2267 22.1064 11.2711ZM0.666992 8.51708H5.09334L10.2 3.44079C10.3577 3.28402 10.6263 3.39572 10.6263 3.61809V18.9161C10.6263 19.1384 10.3577 19.2501 10.2 19.0934L5.09334 14.0171H0.666992V8.51708ZM14.3889 5.33163C16.5688 6.49938 17.9565 8.76117 17.9565 11.2671C17.9565 13.7722 16.5698 16.0333 14.3911 17.2015C13.9877 17.4178 13.8371 17.9182 14.0547 18.3192C14.2723 18.7202 14.7757 18.87 15.1791 18.6537C17.8897 17.2004 19.6164 14.3849 19.6164 11.2671C19.6164 8.14831 17.8884 5.33195 15.1763 3.87912C14.7728 3.66296 14.2695 3.81289 14.052 4.21399C13.8346 4.61509 13.9854 5.11547 14.3889 5.33163ZM13.8071 11.272C13.8071 10.2289 13.1882 9.29856 12.2473 8.88122C11.8286 8.69552 11.6405 8.20717 11.8271 7.79047C12.0136 7.37377 12.5043 7.1865 12.9229 7.3722C14.4572 8.05273 15.4669 9.57072 15.4669 11.272C15.4669 12.9721 14.4588 14.4892 12.9262 15.1704C12.5077 15.3565 12.0169 15.1696 11.83 14.7531C11.643 14.3365 11.8308 13.848 12.2493 13.662C13.1892 13.2442 13.8071 12.3144 13.8071 11.272Z" fill="#BDBDBD"/>
</svg>
